<svg width="256" height="52" viewBox="0 0 256 52" fill="none" xmlns="http://www.w3.org/2000/svg"><path d="M80.4 41.5c-2.533 0-4.733-.517-6.6-1.55s-3.317-2.5-4.35-4.4c-1.033-1.933-1.55-4.2-1.55-6.8 0-1.967.283-3.717.85-5.25.6-1.567 1.45-2.9 2.55-4a10.495 10.495 0 0 1 3.95-2.55c1.533-.6 3.25-.9 5.15-.9 2.533 0 4.733.517 6.6 1.55s3.317 2.5 4.35 4.4c1.033 1.9 1.55 4.15 1.55 6.75 0 1.967-.3 3.733-.9 5.3-.567 1.567-1.4 2.917-2.5 4.05-1.1 1.1-2.417 1.95-3.95 2.55-1.533.567-3.25.85-5.15.85Zm0-4.75c1.233 0 2.317-.3 3.25-.9.933-.6 1.65-1.483 2.15-2.65.533-1.2.8-2.683.8-4.45 0-2.667-.567-4.65-1.7-5.95-1.133-1.333-2.633-2-4.5-2-1.233 0-2.317.3-3.25.9-.933.567-1.667 1.45-2.2 2.65-.5 1.167-.75 2.633-.75 4.4 0 2.633.567 4.633 1.7 6 1.133 1.333 2.633 2 4.5 2Zm29.959 4.75c-2.567 0-4.8-.517-6.7-1.55a11.005 11.005 0 0 1-4.4-4.5c-1.034-1.933-1.55-4.2-1.55-6.8 0-1.967.283-3.717.85-5.25.6-1.567 1.45-2.883 2.55-3.95 1.1-1.1 2.433-1.933 4-2.5 1.566-.6 3.316-.9 5.25-.9 1.1 0 2.283.15 3.55.45 1.3.3 2.516.8 3.65 1.5.533.333.883.733 1.05 1.2.166.467.2.95.1 1.45-.1.467-.317.883-.65 1.25-.3.333-.684.55-1.15.65-.467.067-.984-.05-1.55-.35a8.784 8.784 0 0 0-2.25-.95 7.555 7.555 0 0 0-2.2-.35c-1.1 0-2.067.183-2.9.55a5.7 5.7 0 0 0-2.15 1.5c-.567.633-1 1.433-1.3 2.4-.3.967-.45 2.083-.45 3.35 0 2.467.583 4.417 1.75 5.85 1.2 1.4 2.883 2.1 5.05 2.1.7 0 1.416-.1 2.15-.3a9.623 9.623 0 0 0 2.3-.95c.566-.3 1.066-.4 1.5-.3.466.1.85.333 1.15.7.3.333.483.75.55 1.25.066.467 0 .933-.2 1.4-.167.467-.5.85-1 1.15a12.35 12.35 0 0 1-3.5 1.45c-1.234.3-2.4.45-3.5.45Zm24.581 0c-2.166 0-3.983-.367-5.45-1.1-1.433-.733-2.5-1.8-3.2-3.2-.7-1.433-1.05-3.2-1.05-5.3V21.25h-2.6c-.8 0-1.416-.2-1.85-.6-.433-.433-.65-1.017-.65-1.75 0-.767.217-1.35.65-1.75.434-.4 1.05-.6 1.85-.6h2.6V12c0-1.033.267-1.817.8-2.35.567-.533 1.35-.8 2.35-.8s1.767.267 2.3.8c.534.533.8 1.317.8 2.35v4.55h5.3c.8 0 1.417.2 1.85.6.434.4.65.983.65 1.75 0 .733-.216 1.317-.65 1.75-.433.4-1.05.6-1.85.6h-5.3v10.3c0 1.6.35 2.8 1.05 3.6.7.8 1.834 1.2 3.4 1.2a6.71 6.71 0 0 0 1.5-.15c.434-.1.817-.167 1.15-.2.4-.033.734.1 1 .4.267.267.4.833.4 1.7 0 .667-.116 1.267-.35 1.8-.2.5-.583.85-1.15 1.05-.433.133-1 .25-1.7.35-.7.133-1.316.2-1.85.2Zm19.896 0c-2.534 0-4.734-.517-6.6-1.55-1.867-1.033-3.317-2.5-4.35-4.4-1.034-1.933-1.55-4.2-1.55-6.8 0-1.967.283-3.717.85-5.25.6-1.567 1.45-2.9 2.55-4a10.49 10.49 0 0 1 3.95-2.55c1.533-.6 3.25-.9 5.15-.9 2.533 0 4.733.517 6.6 1.55 1.866 1.033 3.316 2.5 4.35 4.4 1.033 1.9 1.55 4.15 1.55 6.75 0 1.967-.3 3.733-.9 5.3-.567 1.567-1.4 2.917-2.5 4.05-1.1 1.1-2.417 1.95-3.95 2.55-1.534.567-3.25.85-5.15.85Zm0-4.75c1.233 0 2.316-.3 3.25-.9.933-.6 1.65-1.483 2.15-2.65.533-1.2.8-2.683.8-4.45 0-2.667-.567-4.65-1.7-5.95-1.134-1.333-2.634-2-4.5-2-1.234 0-2.317.3-3.25.9-.934.567-1.667 1.45-2.2 2.65-.5 1.167-.75 2.633-.75 4.4 0 2.633.566 4.633 1.7 6 1.133 1.333 2.633 2 4.5 2Zm21.758 13.65c-1 0-1.767-.267-2.3-.8-.533-.533-.8-1.317-.8-2.35V19.3c0-1.033.267-1.817.8-2.35.533-.533 1.283-.8 2.25-.8 1 0 1.767.267 2.3.8.533.533.8 1.317.8 2.35v3.9l-.55-1.5c.5-1.7 1.517-3.067 3.05-4.1 1.567-1.033 3.383-1.55 5.45-1.55 2.133 0 4 .517 5.6 1.55 1.633 1.033 2.9 2.5 3.8 4.4.9 1.867 1.35 4.117 1.35 6.75 0 2.6-.45 4.867-1.35 6.8-.9 1.9-2.15 3.367-3.75 4.4-1.6 1.033-3.483 1.55-5.65 1.55-2.033 0-3.817-.5-5.35-1.5-1.533-1.033-2.567-2.367-3.1-4h.6v11.25c0 1.033-.283 1.817-.85 2.35-.533.533-1.3.8-2.3.8Zm9.25-13.65c1.233 0 2.317-.3 3.25-.9.933-.6 1.65-1.483 2.15-2.65.533-1.2.8-2.683.8-4.45 0-2.667-.567-4.65-1.7-5.95-1.133-1.333-2.633-2-4.5-2-1.233 0-2.317.3-3.25.9-.933.567-1.667 1.45-2.2 2.65-.5 1.167-.75 2.633-.75 4.4 0 2.633.567 4.633 1.7 6 1.133 1.333 2.633 2 4.5 2Zm27.481 4.75c-2.034 0-3.717-.367-5.05-1.1-1.334-.767-2.334-1.9-3-3.4-.634-1.5-.95-3.367-.95-5.6V19.3c0-1.067.266-1.85.8-2.35.533-.533 1.3-.8 2.3-.8 1 0 1.766.267 2.3.8.566.5.85 1.283.85 2.35v12.2c0 1.733.35 3.017 1.05 3.85.7.833 1.816 1.25 3.35 1.25 1.666 0 3.033-.567 4.1-1.7 1.066-1.167 1.6-2.7 1.6-4.6v-11c0-1.067.266-1.85.8-2.35.533-.533 1.3-.8 2.3-.8 1 0 1.766.267 2.3.8.566.5.85 1.283.85 2.35v18.9c0 2.133-1.017 3.2-3.05 3.2-.967 0-1.717-.267-2.25-.8-.534-.567-.8-1.367-.8-2.4v-3.8l.7 1.5c-.7 1.8-1.767 3.183-3.2 4.15-1.4.967-3.067 1.45-5 1.45Zm30.055 0c-1.434 0-2.95-.15-4.55-.45-1.6-.3-3.034-.817-4.3-1.55-.534-.333-.917-.717-1.15-1.15-.2-.467-.284-.917-.25-1.35.066-.467.233-.867.5-1.2.3-.333.666-.55 1.1-.65.466-.1.966-.017 1.5.25 1.333.633 2.583 1.083 3.75 1.35 1.166.233 2.316.35 3.45.35 1.6 0 2.783-.267 3.55-.8.8-.567 1.2-1.3 1.2-2.2 0-.767-.267-1.35-.8-1.75-.5-.433-1.267-.75-2.3-.95l-5-.95c-2.067-.4-3.65-1.15-4.75-2.25-1.067-1.133-1.6-2.583-1.6-4.35 0-1.6.433-2.983 1.3-4.15.9-1.167 2.133-2.067 3.7-2.7 1.566-.633 3.366-.95 5.4-.95 1.466 0 2.833.167 4.1.5 1.3.3 2.55.783 3.75 1.45.5.267.833.617 1 1.05.2.433.25.883.15 1.35-.1.433-.3.833-.6 1.2-.3.333-.684.55-1.15.65-.434.067-.934-.033-1.5-.3-1.034-.533-2.034-.917-3-1.15a11.133 11.133 0 0 0-2.7-.35c-1.634 0-2.85.283-3.65.85-.767.567-1.15 1.317-1.15 2.25 0 .7.233 1.283.7 1.75.466.467 1.183.783 2.15.95l5 .95c2.166.4 3.8 1.133 4.9 2.2 1.133 1.067 1.7 2.5 1.7 4.3 0 2.433-.95 4.35-2.85 5.75-1.9 1.367-4.434 2.05-7.6 2.05Z" fill="#fff"/><path transform="scale(-.99466 1.0053) rotate(-45 29.827 76.336)" stroke="#fff" stroke-width="10" stroke-linecap="round" d="M5-5h10.268"/><path transform="matrix(-.25626 -.9666 -.96523 .2614 30.152 52)" stroke="#fff" stroke-width="10" stroke-linecap="round" d="M5-5h10.362"/><path transform="matrix(.70333 -.71086 .70333 .71086 5 43.681)" stroke="#fff" stroke-width="10" stroke-linecap="round" d="M5-5h10.268"/><path transform="matrix(.25626 -.9666 .96523 .2614 19.848 52)" stroke="#fff" stroke-width="10" stroke-linecap="round" d="M5-5h10.362"/><path fill-rule="evenodd" clip-rule="evenodd" d="M47 22c0 12.15-9.85 22-22 22S3 34.15 3 22 12.85 0 25 0s22 9.85 22 22Zm-26-1a4 4 0 1 1-8 0 4 4 0 0 1 8 0Zm12 4a4 4 0 1 0 0-8 4 4 0 0 0 0 8Z" fill="#fff"/></svg>
